<svg width="350" height="1100" stroke="black" fill="transparent" stroke-width="3" xmlns="http://www.w3.org/2000/svg">
    <!--直线命令-->
    <!--M X Y：移动到 Point(X, Y)-->
    <!--L X Y：从当前点到 Point(X, Y) 构造直线-->
    <path d="M 50 50 L 50 150 L 150 150 L 150 50 L 50 50"/>
    <!--l dx dy：从当前点相对移动 dx dy-->
    <path d="M 250 50 l 50 50 l -50 50 l -50 -50 l 50 -50"/>
    <!--H X， V Y： 在水平方向 移动到 X，在垂直方向移动到 Y-->
    <path d="M 50 200 H 150 L 50 300 V 200"/>
    <!--h dx, h dy：在水平方向移动 dx，在垂直方向移动 dy-->
    <path d="M 200 200 h 100 v 100 l -100 -100"/>
    <!--Z：使用 Z 闭合路径-->
    <path d="M 50 400 l 125 -50 l 125 50 l -125 50 Z"/>
    <!--曲线命令-->
    <!--C/c：三姐贝塞尔曲线-->
    <!--C X1 Y1, X2 Y2, X Y：两个控制点 Point(X1, Y1)，Point(X2, Y2)、终点 Poing(X, Y)-->
    <path d="M 50 500 C 125 600, 225 600 300 500"/>
    <!--c dx1 dy1, dx2 dy2, dx dy-->
    <path d="M 50 750 c 125 0, 125 -100, 250 -100 "/>
    <!-- S/s，继续贝塞尔曲线，第一个控制点默认为上一个控制的的对称点 -->
    <path d="M 50 900 c 50 0, 50 -100, 125 -100 s 50 100, 125 100  "/>
    <!-- Q/T(q/t) 二次贝塞尔曲线 -->
    <path d="M 50 1050 Q 50 950, 175, 950 T 300 1050" />
</svg>
